<svg width="334" height="227" viewBox="0 0 334 227" fill="none" xmlns="http://www.w3.org/2000/svg">
<path fill-rule="evenodd" clip-rule="evenodd" d="M162.813 1.07364C149.095 2.44465 136.079 6.32418 122.765 13.0097C97.2706 25.8109 77.6966 47.762 67.6902 74.773C63.0394 87.3273 60.9985 99.0359 60.942 113.488C60.8996 124.202 61.7458 131.915 63.9188 140.616C72.2979 174.174 94.8223 201.759 125.843 216.454C133.481 220.072 144.439 223.602 153.595 225.394C159.94 226.635 162.815 226.836 174.182 226.835C188.555 226.833 192.679 226.298 205.044 222.833C243.699 212.001 273.917 180.915 283.858 141.757C286.637 130.81 287.443 122.928 287.065 110.416C286.535 92.8949 283.544 80.4218 276.204 65.1255C264.799 41.3561 246.832 23.3338 223.037 11.7941C204.502 2.80538 183.282 -0.972135 162.813 1.07364ZM328.214 13.3501C318.234 15.0247 311.261 23.1021 309.142 35.4431C306.384 51.5106 306.533 99.1631 309.41 120.849C310.154 126.458 311.902 129.252 316.094 131.534C321.052 134.232 327.632 133.407 331.018 129.663C334.032 126.329 333.96 127.832 333.96 68.3401V12.7055L332.577 12.778C331.817 12.8173 329.854 13.0748 328.214 13.3501ZM183.068 24.408C195.541 25.8368 203.402 28.1505 214.434 33.6388C239.03 45.8766 256.617 69.0389 262.466 96.8961C264.034 104.368 264.036 123.386 262.469 130.695C255.906 161.315 236.869 184.842 209.108 196.643C196.845 201.856 183.976 204.191 170.495 203.65C153.328 202.96 138.641 198.213 124.132 188.663C116.417 183.585 104.735 172.011 99.6728 164.429C78.8433 133.232 78.9422 93.7768 99.9272 62.9624C104.938 55.6046 115.74 44.7698 122.869 39.9519C141.136 27.6042 162.598 22.0629 183.068 24.408ZM6.26168 26.7229C4.99452 26.828 3.95535 27.1045 3.95289 27.3374C3.94736 27.8352 1.87824 53.4673 0.847055 65.8101C-0.154015 77.7892 0.279844 84.5871 2.33238 89.0762C4.38306 93.5605 8.54958 97.7522 13.0547 99.8643C16.1833 101.331 17.2735 101.505 23.3149 101.505C29.5837 101.505 30.3353 101.373 33.6618 99.6892C38.2941 97.3441 42.7968 92.4322 44.5322 87.83C46.5859 82.384 46.5632 77.0284 44.3749 51.1136L42.3512 27.1469L38.7519 26.8261C36.5685 26.632 35.0586 26.753 34.9148 27.1334C34.7845 27.4788 34.4717 37.7169 34.2197 49.8846L33.7619 72.0077L27.3094 72.3795V49.6609C27.3094 35.3386 27.0863 26.8661 26.7059 26.737C26.374 26.6246 24.4383 26.6258 22.4042 26.7407L18.7059 26.949V72.3149H12.5606L12.477 66.6305C12.4316 63.5044 12.2239 53.203 12.0161 43.7393L11.6388 26.5324H10.1025C9.25752 26.5324 7.52946 26.6184 6.26168 26.7229ZM159.741 42.2097C145.856 45.0519 133.972 51.2304 124.028 60.7765C111.967 72.3561 104.752 85.6742 102.004 101.434C100.942 107.529 100.776 118.477 101.656 124.552C104.115 141.545 114.218 159.558 127.067 169.859C132.822 174.471 133.839 174.863 130.513 171.184C113.614 152.491 107.717 124.003 115.77 99.9651C124.083 75.1534 143.678 57.4199 169.573 51.274C177.497 49.3936 192.99 49.3936 200.914 51.274C207.222 52.771 213.153 54.9034 218.456 57.5803C220.469 58.5962 222.114 59.2162 222.113 58.9575C222.108 58.0259 212.795 51.6642 207.224 48.787C200.987 45.5663 193.729 43.1333 186.519 41.8471C179.79 40.6469 166.497 40.8264 159.741 42.2097ZM19.1668 109.85C16.7198 111.276 16.3129 113.492 15.6634 128.931C14.1793 164.198 13.1272 192.422 13.0019 200.324L12.8679 208.807L15.6738 211.466C19.2553 214.86 22.3052 215.526 26.2591 213.777C27.7549 213.116 29.7509 211.561 30.6948 210.324L32.4106 208.075L31.9908 194.12C31.7598 186.445 31.3112 174.496 30.9935 167.567C30.6758 160.638 30.127 146.535 29.7742 136.226C29.4215 125.917 28.9858 116.332 28.8064 114.925C28.3467 111.328 26.0809 109.181 22.7704 109.205C21.3797 109.216 19.758 109.506 19.1668 109.85ZM321.285 137.867C320.566 138.015 319.342 138.813 318.563 139.642C316.951 141.358 316.652 144.57 314.314 185.267C312.96 208.835 312.939 208.546 316.243 211.63C320.632 215.729 325.725 215.665 330.117 211.455L332.925 208.766L332.529 199.075C331.662 177.821 329.588 144.391 329.001 142.215C328.131 138.991 324.845 137.139 321.285 137.867Z" fill="white"/>
</svg>
