<svg width="35" height="32" viewBox="0 0 35 32" fill="none" xmlns="http://www.w3.org/2000/svg">
<path fill-rule="evenodd" clip-rule="evenodd" d="M15.2158 0.143662C12.6177 0.379185 9.56345 1.36231 7.37753 2.66681C3.73099 4.84291 1.50879 8.14707 1.45348 11.4752C1.43782 12.4174 1.44605 12.457 1.70248 12.6783C1.95387 12.8954 2.07202 12.9109 3.98238 12.9777C6.54071 13.0671 32.4681 12.9786 32.8414 12.8792C33.2955 12.7583 33.4547 12.4044 33.4404 11.5478C33.397 8.96724 31.9425 6.21095 29.5398 4.15597C25.9409 1.07822 20.798 -0.362375 15.2158 0.143662ZM20.7173 2.42494C22.8318 2.78754 25.2471 3.69335 26.8305 4.71752C27.6326 5.23644 28.9074 6.36925 29.4879 7.07889C30.3427 8.12398 31.2246 9.96078 31.2246 10.6961V10.9471H3.56476L3.62612 10.6745C3.80712 9.87077 3.91537 9.55277 4.21304 8.95059C5.25525 6.84169 7.03198 5.14644 9.48197 3.92342C11.076 3.12764 13.339 2.4752 15.3645 2.22728C16.557 2.08137 19.3055 2.18288 20.7173 2.42494ZM10.435 5.67131C10.152 5.71661 9.81345 6.14503 9.81345 6.45787C9.81345 6.59536 9.9436 6.83009 10.1148 7.00128C10.3682 7.25454 10.4668 7.29251 10.734 7.23908C11.1904 7.14779 11.4409 6.85844 11.4289 6.43626C11.4234 6.24257 11.3673 6.02202 11.3043 5.94599C11.1548 5.76587 10.7143 5.6266 10.435 5.67131ZM24.1185 5.74407C23.5323 5.99049 23.4286 6.53658 23.8817 6.98968C24.2206 7.32859 24.5545 7.35892 24.9056 7.08276C25.6498 6.49742 24.9911 5.3772 24.1185 5.74407ZM17.0145 6.63035C16.4696 7.1354 16.8094 7.9733 17.5591 7.9733C18.374 7.9733 18.6528 6.90364 17.9346 6.53231C17.5385 6.32742 17.3158 6.35121 17.0145 6.63035ZM4.64394 13.7279C3.08281 13.9626 1.38776 15.1483 1.38776 16.0058C1.38776 16.4412 1.94019 16.9937 2.37565 16.9937C2.73458 16.9937 2.97516 16.8813 3.47753 16.4789C4.30424 15.8164 5.55639 15.6235 6.56946 16.0026C6.86099 16.1117 7.34224 16.4083 7.63873 16.6618C8.88146 17.7241 9.77915 18.1354 11.0889 18.2423C12.5561 18.3623 13.7822 17.9219 15.1881 16.7699C16.0834 16.0364 16.6541 15.8027 17.5453 15.8047C18.357 15.8065 18.9953 16.0888 19.9075 16.8493C22.177 18.7412 24.75 18.7564 27.0613 16.8913C28.6703 15.5929 29.9009 15.5223 31.5192 16.6356C32.1775 17.0884 32.398 17.1436 32.829 16.9636C33.2512 16.7872 33.5493 16.2337 33.4545 15.8023C33.3662 15.4003 32.5466 14.6911 31.6697 14.2577C29.7944 13.3309 27.6817 13.6426 25.8718 15.1133C24.9399 15.8705 24.3944 16.0994 23.5196 16.1006C22.5963 16.1019 22.1854 15.9326 21.1779 15.1359C20.7337 14.7847 20.1696 14.3962 19.9243 14.2723C17.8887 13.2456 15.7948 13.5192 13.9272 15.0557C12.9156 15.8881 12.591 16.0303 11.5882 16.0812C10.543 16.1342 10.1975 16.001 9.10747 15.1252C7.63684 13.9434 6.20101 13.494 4.64394 13.7279ZM17.4461 19.1745C8.20513 19.2018 0.56462 19.2629 0.467179 19.3104C0.0470847 19.5152 0 19.8298 0 22.4343C0 23.8033 0.0432188 25.0246 0.0966476 25.1651C0.218077 25.4845 0.748994 25.815 1.14114 25.8155C1.42543 25.8159 1.44872 25.8481 1.62467 26.485C2.30695 28.9542 4.04145 30.7358 6.56559 31.5606L7.2333 31.7786L27.9039 31.7071L28.7381 31.3893C31.0313 30.5156 32.6365 28.7648 33.2615 26.4559L33.4348 25.8159H33.8431C34.1182 25.8159 34.3737 25.7329 34.6257 25.5616L35 25.3073L34.971 22.499C34.9435 19.8573 34.9301 19.6777 34.7447 19.473C34.6362 19.3532 34.4801 19.226 34.3977 19.1901C34.3153 19.1543 26.6871 19.1473 17.4461 19.1745ZM32.9097 22.3845C32.9097 23.5737 32.9028 23.614 32.6867 23.6718C32.3952 23.75 2.5962 23.75 2.30467 23.6718C2.08927 23.6141 2.08164 23.5718 2.08164 22.4357V21.2595L4.63413 21.2313C6.03804 21.2158 12.9743 21.1927 20.0482 21.18L32.9097 21.157V22.3845ZM31.2246 25.9531C31.2246 26.0287 31.0458 26.4477 30.8272 26.8843C30.3442 27.8495 29.4737 28.7136 28.5035 29.1913C27.9301 29.4735 27.7108 29.5217 26.6881 29.5907C25.1038 29.6975 9.20828 29.696 8.01025 29.5889C6.76364 29.4774 5.83969 29.0569 4.97849 28.2089C4.40971 27.649 3.86134 26.7322 3.71018 26.0885L3.64614 25.8159H17.4354C29.1137 25.8159 31.2246 25.8369 31.2246 25.9531Z" fill="white"/>
</svg>
