<svg width="18" height="36" viewBox="0 0 18 36" fill="none" xmlns="http://www.w3.org/2000/svg">
<path fill-rule="evenodd" clip-rule="evenodd" d="M11.2385 0.439892C10.5797 0.58735 9.78261 0.961769 9.42889 1.29005L9.18145 1.51969L9.01045 1.35761C8.69852 1.06197 8.49331 0.988773 7.97467 0.988271C7.23442 0.98749 7.0122 1.07503 6.55198 1.54865C5.93084 2.18785 6.03451 2.15616 4.62308 2.13803C2.91429 2.11599 2.59973 2.19399 2.07317 2.7701C1.68714 3.19244 1.41086 3.66377 1.3034 4.08316C1.22691 4.38187 1.22306 4.51616 1.27729 4.99798C1.34882 5.63412 1.50649 6.27394 1.67113 6.5967C1.732 6.71598 1.78176 6.82372 1.78176 6.8361C1.78176 6.84849 1.668 6.90211 1.52903 6.95516C1.19662 7.08215 0.781192 7.49378 0.589212 7.8865L0.435059 8.20184L0.439634 20.0351C0.444766 33.2726 0.413188 32.278 0.857348 33.1797C1.38157 34.2441 2.29728 34.9956 3.45552 35.3123C3.78949 35.4036 4.18651 35.4114 8.4768 35.4114C13.6581 35.4114 13.409 35.428 14.2513 35.0274C15.2509 34.5519 15.9534 33.757 16.3523 32.6497L16.4829 32.2871L16.4977 21.4212C16.5111 11.5737 16.5208 10.5457 16.6014 10.4516C16.7096 10.3253 16.9864 9.69583 17.3282 8.79864C17.5595 8.19196 17.581 8.09505 17.5577 7.76604C17.5435 7.56637 17.4875 7.31703 17.4331 7.21198C17.2877 6.93062 16.8581 6.53818 16.4512 6.31495C15.9467 6.03811 15.937 5.85601 16.3997 5.3497C16.7661 4.94877 16.8456 4.74519 16.8456 4.20775C16.8456 2.97212 16.3008 2.49666 14.6034 2.2509L13.9512 2.1565L13.3759 1.62235C12.4593 0.771296 12.2936 0.641747 11.9639 0.518335C11.6649 0.406528 11.478 0.386276 11.2385 0.439892ZM11.7219 1.6166C11.8037 1.67055 12.1646 1.9894 12.5239 2.32521C13.49 3.22815 13.4977 3.23334 13.9329 3.27345C14.8158 3.3548 15.4881 3.51799 15.6396 3.68776C15.6836 3.73703 15.7369 3.91869 15.7581 4.09142L15.7967 4.40547L15.5148 4.71674C15.1856 5.08033 15.0999 5.23437 15.0067 5.63083C14.8905 6.12554 15.0461 6.65539 15.3936 6.9478C15.4876 7.02686 15.7125 7.17047 15.8933 7.26687C16.2946 7.48072 16.469 7.65781 16.469 7.85157C16.469 8.01114 16.0146 9.21708 15.9545 9.21708C15.9342 9.21708 15.8065 8.99743 15.6706 8.7289C15.3145 8.02514 14.6203 7.33449 13.9051 6.9724C13.6226 6.82941 13.3088 6.69635 13.2077 6.67671C13.0342 6.64301 13.0155 6.61534 12.8762 6.18445C12.045 3.61423 8.91337 2.49655 6.54534 3.92494C5.66706 4.45474 4.91119 5.45676 4.66811 6.41354C4.62715 6.57466 4.5698 6.72703 4.54068 6.75219C4.5115 6.77741 4.31193 6.8688 4.09713 6.95533C3.72823 7.10396 3.43466 7.25259 3.02604 7.49763L2.84761 7.60464L2.93493 7.42962C3.06989 7.15914 3.01181 6.72357 2.79595 6.3872C2.55856 6.01725 2.39163 5.35036 2.37829 4.71886L2.36758 4.2097L2.64024 3.80967C2.7902 3.58968 2.98838 3.37064 3.08055 3.323C3.21958 3.25108 3.48861 3.2368 4.65951 3.23909L6.07088 3.24187L6.39961 3.07757C6.59762 2.97865 6.89711 2.74678 7.15263 2.49449L7.57693 2.07571H7.88345H8.18997L8.43099 2.39082C8.71827 2.76636 8.9676 2.91259 9.3206 2.91259C9.64514 2.91259 9.77876 2.80954 9.97392 2.4089C10.147 2.05362 10.377 1.8805 10.9595 1.66704C11.4282 1.49525 11.5279 1.48867 11.7219 1.6166ZM9.71019 4.50869C10.4455 4.72477 11.0995 5.20084 11.5085 5.81757C11.8431 6.32198 11.9351 6.67609 12.0224 7.79439C12.0655 8.34673 12.1013 8.83496 12.102 8.87932C12.1027 8.92367 12.0322 8.84835 11.9453 8.71194C11.7379 8.38639 11.3707 8.06085 11.05 7.91813C10.6589 7.74406 10.0368 7.72481 9.64023 7.87445C9.25091 8.0214 8.85005 8.36653 8.67224 8.70787L8.53778 8.96602L8.53521 8.25679C8.53198 7.38744 8.43496 7.07595 8.02885 6.63163C7.57286 6.13273 6.75512 5.86583 6.17415 6.02628L5.96371 6.08442L6.08455 5.8694C6.45864 5.2038 7.40743 4.57575 8.27299 4.42081C8.64412 4.35442 9.32735 4.39615 9.71019 4.50869ZM7.02571 7.20048C7.13952 7.26157 7.27074 7.4025 7.34562 7.54405C7.49202 7.82089 7.50089 8.1456 7.43544 10.8369L7.39828 12.3633L6.97248 12.8127C6.73832 13.0598 6.35168 13.4839 6.11323 13.7551L5.67978 14.2481L5.71822 10.9655C5.75521 7.80538 5.76085 7.67583 5.86947 7.49573C6.10079 7.11233 6.61603 6.98077 7.02571 7.20048ZM13.5113 8.00121C13.894 8.20518 14.4131 8.69944 14.6035 9.04117L14.7326 9.27287L14.5198 9.27332C14.3319 9.27365 13.9707 9.31924 13.4059 9.4138L13.2301 9.44326L13.1953 8.84199C13.1762 8.51131 13.1483 8.1466 13.1334 8.0315C13.1184 7.91646 13.1218 7.82228 13.1409 7.82228C13.16 7.82228 13.3267 7.90279 13.5113 8.00121ZM2.2758 8.02592C2.17287 8.10872 1.94261 8.31643 1.76419 8.48755C1.45471 8.78436 1.4416 8.79094 1.47915 8.63127C1.59045 8.15759 1.84816 7.92226 2.29265 7.8884L2.46298 7.8754L2.2758 8.02592ZM4.62715 11.759V15.584L4.21859 16.1526C3.37167 17.3312 2.6389 18.4952 1.91349 19.8142L1.55876 20.4592L1.55871 15.5612C1.5586 10.6804 1.55899 10.6624 1.67699 10.4283C2.13353 9.52243 3.1485 8.58468 4.19862 8.09862C4.38825 8.0108 4.56227 7.93783 4.58531 7.93643C4.60835 7.93504 4.62715 9.65516 4.62715 11.759ZM10.7094 8.98409C10.9404 9.10505 11.1549 9.48511 11.1546 9.77288L11.1543 9.97027L10.6664 10.1458C10.3981 10.2424 10.0341 10.3864 9.85765 10.4659L9.53685 10.6105V10.0199C9.53685 9.36047 9.60603 9.13641 9.85799 8.98024C10.0597 8.85516 10.4666 8.85706 10.7094 8.98409ZM15.438 21.1705L15.4229 32.0081L15.2778 32.3807C14.8998 33.3517 14.1997 33.9893 13.2357 34.2404C12.7623 34.3637 4.2707 34.3627 3.74737 34.2393C2.83322 34.0238 2.13822 33.4207 1.72246 32.4823L1.58649 32.1755L1.57148 27.5726L1.55648 22.9698L2.16182 21.7424C3.57743 18.8719 4.9768 16.7484 6.99603 14.4066C7.67222 13.6224 9.02886 12.2347 9.38716 11.9607C10.3327 11.2378 13.3913 10.3565 15.0195 10.3379L15.453 10.3329L15.438 21.1705ZM13.4702 17.0249C13.4088 17.05 13.3084 17.1264 13.247 17.1947C13.1378 17.3161 13.1358 17.3859 13.151 20.4511L13.1666 23.5835L13.3332 23.7369C13.5647 23.9501 13.8411 23.9464 14.0603 23.7273L14.2234 23.5642L14.2221 20.4495C14.221 17.5826 14.2132 17.3253 14.1245 17.2158C13.9449 16.9941 13.7117 16.9261 13.4702 17.0249ZM13.4297 25.4837C13.3461 25.5291 13.252 25.6143 13.2205 25.6731C13.1855 25.7386 13.1633 26.3702 13.1633 27.3055C13.1633 28.9755 13.1674 28.9978 13.4948 29.1334C13.7089 29.2221 13.9171 29.1701 14.0886 28.985L14.2234 28.8396V27.3439C14.2234 25.7306 14.2057 25.6156 13.9363 25.4762C13.7442 25.3769 13.6233 25.3787 13.4297 25.4837Z" fill="white"/>
</svg>
