<svg width="34" height="36" viewBox="0 0 34 36" fill="none" xmlns="http://www.w3.org/2000/svg">
<path fill-rule="evenodd" clip-rule="evenodd" d="M30.6006 0.455987C30.2194 0.535875 29.9432 0.677055 29.7327 0.899581C29.4433 1.20564 29.3181 1.55276 29.1511 2.51243C29.0045 3.35507 28.8234 3.83417 28.4771 4.29476C28.2326 4.62 28.0003 4.80329 27.4003 5.14436C26.4191 5.70211 25.8065 6.15701 25.0713 6.8737C24.5273 7.40408 24.1206 7.89004 23.7429 8.46099C23.6037 8.67156 23.4712 8.84133 23.4486 8.83826C23.426 8.8352 23.1204 8.77511 22.7695 8.70474C22.4185 8.63441 22.071 8.56666 21.9973 8.55423L21.8632 8.53162L22.289 8.10432C24.0341 6.3531 24.6573 3.43339 23.694 1.52184C23.4164 0.971083 23.1989 0.787644 22.9219 0.870631C22.7269 0.929079 22.6496 1.03026 22.5132 1.40563C22.1843 2.31095 21.6639 3.19485 20.8925 4.1585C20.5122 4.63353 19.8972 5.32655 19.8594 5.32273C19.8456 5.32134 19.6866 5.14924 19.5061 4.94024C19.15 4.5279 19.006 4.4301 18.8033 4.46299C18.6412 4.48932 18.5378 4.58627 18.3311 4.90597C18.1254 5.22424 17.6461 5.70218 16.8444 6.38869C16.1727 6.96384 15.9815 7.15442 15.7142 7.51514C15.5332 7.75951 15.2948 8.21531 15.2948 8.31715C15.2948 8.4273 15.253 8.41768 14.9699 8.24208C14.1349 7.72417 13.0104 7.26297 11.9026 6.98396C11.6277 6.91476 11.3239 6.82433 11.2276 6.78302C10.7866 6.59397 10.2996 6.17287 9.99991 5.72129C9.92538 5.60899 9.70756 5.19606 9.51584 4.80366C9.03725 3.82411 8.82183 3.55655 8.36704 3.37672C7.97705 3.22249 7.28996 3.2778 6.73647 3.50799C5.7869 3.90287 5.27005 4.62755 5.26834 5.56644C5.26677 6.43149 5.53629 6.8399 6.49382 7.4234C7.29747 7.91312 7.49984 8.06042 7.83915 8.40266C8.17835 8.74478 8.36653 9.04161 8.48879 9.42723C8.53608 9.57651 8.76327 10.6288 8.78132 10.7825C8.78504 10.8138 8.5107 10.8295 7.74719 10.8416C6.80863 10.8565 6.68422 10.8658 6.46221 10.9371C5.8099 11.1467 5.30338 11.8399 5.30469 12.5212C5.30593 13.168 5.70103 13.7853 6.27928 14.0441L6.27948 14.0442C6.6339 14.2027 6.63394 14.2027 6.64721 14.2986C6.65388 14.3467 6.76557 14.9357 6.89544 15.6075C7.02528 16.2793 7.17095 17.0341 7.21912 17.2847C7.26728 17.5354 7.3483 17.9538 7.39913 18.2145C7.51081 18.7872 7.51198 18.8542 7.41849 19.3206C7.22397 20.291 6.96702 20.8041 6.4113 21.332C6.19975 21.533 6.01726 21.6623 5.72298 21.8199C3.59766 22.9581 1.85092 24.7532 1.01758 26.6554C0.329001 28.2272 0.253526 29.7149 0.80326 30.8796C1.00402 31.305 1.21386 31.6002 1.53549 31.9097C2.09124 32.4444 2.86729 32.7967 3.78565 32.931L4.07972 32.9739L4.4882 33.3655C4.88312 33.744 5.46877 34.1733 5.86204 34.3726C6.5157 34.7038 7.08822 34.8406 7.80189 34.8361C8.57732 34.8312 9.14765 34.6829 9.96524 34.2737C10.3682 34.072 10.4545 34.0404 10.4699 34.0893C10.4802 34.1218 10.5441 34.2649 10.6121 34.4073C10.8378 34.8802 11.3012 35.2425 11.8211 35.3527C12.1911 35.4311 26.6389 35.4311 27.0089 35.3527C27.5344 35.2414 27.9812 34.8949 28.2185 34.4149C28.3724 34.1035 28.3849 34.0447 29.1674 29.9735C29.2195 29.7027 29.4351 28.587 29.6466 27.4941C30.0996 25.1522 30.2131 24.564 30.3535 23.8296C30.411 23.5288 30.641 22.3393 30.8646 21.1862C31.0882 20.0331 31.3179 18.8435 31.375 18.5427C31.432 18.2419 31.5282 17.7414 31.5888 17.4306C31.6493 17.1198 31.8141 16.2698 31.955 15.5417C32.0959 14.8137 32.2208 14.2025 32.2325 14.1835C32.2442 14.1646 32.2753 14.149 32.3015 14.149C32.4393 14.149 32.877 13.8771 33.0635 13.6756C33.6724 13.0179 33.6808 12.0434 33.0831 11.3949C32.7465 11.0297 32.3852 10.887 31.698 10.8479L31.2418 10.8219L31.2888 10.5074C31.3816 9.88512 31.4125 9.30155 31.403 8.35161C31.3824 6.31106 31.3845 6.24448 31.478 5.96336C31.6563 5.42759 31.9074 5.06494 32.6187 4.31634C33.1365 3.77142 33.4217 3.37833 33.5065 3.0928C33.5853 2.8275 33.5771 2.40604 33.4866 2.07945C33.2651 1.27908 32.8203 0.811344 32.0284 0.546048C31.6241 0.410592 31.0038 0.371469 30.6006 0.455987ZM31.6129 1.4072C31.9219 1.4872 32.1161 1.58937 32.3014 1.76938C32.6485 2.10672 32.7166 2.45949 32.5169 2.8858C32.3979 3.14016 32.1856 3.41071 31.6988 3.92883C31.2807 4.37377 31.0025 4.74885 30.789 5.15526C30.4409 5.81788 30.386 6.24547 30.4603 7.71962C30.5148 8.80173 30.4622 9.82215 30.3108 10.6214L30.2711 10.831H28.7124H27.1537L27.1098 10.725C27.0525 10.5866 26.5665 10.1179 26.288 9.93227C25.8421 9.6351 25.2546 9.35967 24.6655 9.17153C24.5552 9.1363 24.4597 9.10309 24.4533 9.09776C24.447 9.0924 24.5275 8.96749 24.6323 8.82011C25.4842 7.62241 26.5444 6.69635 27.9617 5.9121C28.5306 5.59725 28.7015 5.47437 28.9883 5.17385C29.5376 4.59819 29.8314 3.92755 30.0797 2.6818C30.2241 1.95748 30.3257 1.69536 30.5194 1.54765C30.7717 1.35524 31.1998 1.30026 31.6129 1.4072ZM23.1841 3.61157C23.1848 4.13608 23.1706 4.31616 23.1041 4.62335C22.7334 6.33771 21.7014 7.75334 20.4915 8.20718C20.0305 8.38009 19.9661 8.41596 19.8889 8.54256C19.7587 8.75604 19.8162 9.03731 20.0168 9.16879C20.0809 9.21076 20.3998 9.27234 20.994 9.35741C23.088 9.65727 24.4521 10.0135 25.3954 10.5068C25.7273 10.6804 26.0435 10.8998 25.8931 10.8522C25.8563 10.8405 23.8382 10.8306 21.4083 10.8301L16.9903 10.8291L16.8748 10.6569C16.313 9.81876 16.13 9.13612 16.3094 8.54719C16.4607 8.0504 16.7089 7.7513 17.6643 6.91469C18.0551 6.57246 18.5014 6.16182 18.656 6.00212L18.9371 5.71177L19.0917 5.89226C19.1768 5.99151 19.3411 6.16707 19.4569 6.2824C19.6444 6.46909 19.6838 6.49206 19.8165 6.49206C19.8985 6.49206 20.0124 6.46781 20.0696 6.4382C20.1897 6.37611 20.9987 5.51393 21.4389 4.97889C22.0562 4.22843 22.6244 3.38752 22.954 2.73649L23.074 2.49949L23.1286 2.73649C23.1657 2.89772 23.1835 3.1775 23.1841 3.61157ZM8.02868 4.34468C8.25084 4.45224 8.4007 4.66696 8.73432 5.35572C9.10313 6.11708 9.36023 6.50985 9.73009 6.87702C10.2827 7.4257 10.6971 7.63856 11.8601 7.97131C12.8869 8.26509 13.1871 8.37378 13.7634 8.66048C14.2675 8.91126 14.5912 9.10218 15.0047 9.39256C15.2616 9.57297 15.2841 9.5997 15.3466 9.79816C15.3834 9.91502 15.5098 10.1977 15.6276 10.4264C15.7453 10.6552 15.8417 10.8438 15.8417 10.8457C15.8417 10.8477 14.4743 10.8449 12.8031 10.8397L9.76444 10.8302L9.6078 10.0923C9.36967 8.97051 9.23236 8.61216 8.84156 8.09215C8.49896 7.6363 8.05106 7.26968 7.25496 6.79349C6.35902 6.25757 6.21149 6.09579 6.20508 5.64224C6.20056 5.3228 6.25266 5.1321 6.40773 4.90061C6.7314 4.41738 7.57859 4.12682 8.02868 4.34468ZM31.2085 14.4316C31.1828 14.5469 30.829 16.3674 30.4224 18.4772L29.6831 22.3132L26.3995 22.3137L23.1158 22.3142L22.9923 22.1104C22.9244 21.9982 22.7728 21.7918 22.6554 21.6517C22.538 21.5115 22.4513 21.3819 22.4626 21.3635C22.4739 21.3452 22.4615 21.3347 22.4349 21.3402C22.4083 21.3457 22.3911 21.3285 22.3966 21.302C22.4021 21.2754 22.3922 21.2626 22.3745 21.2735C22.3274 21.3026 22.0354 21.041 22.0638 20.9951C22.0777 20.9726 22.0708 20.9667 22.0475 20.9811C22.0253 20.9948 21.9284 20.9502 21.8322 20.8819C21.7361 20.8135 21.6017 20.7293 21.5335 20.6947C21.4359 20.6451 21.4205 20.6243 21.4606 20.5957C21.5012 20.5668 21.4992 20.5634 21.4505 20.5789C21.4169 20.5896 21.2528 20.5407 21.0859 20.4702C19.8951 19.9678 18.5777 20.0292 17.4134 20.6414C17.0425 20.8365 17.0278 20.8424 17.0666 20.7794C17.0829 20.7531 17.0766 20.7473 17.05 20.7638C17.0265 20.7783 17.0159 20.8039 17.0263 20.8209C17.0367 20.8377 16.9652 20.9104 16.8673 20.9822C16.5989 21.1792 16.0632 21.7595 15.8782 22.0537L15.7141 22.3146L12.8974 22.3155C11.3482 22.316 10.0807 22.3067 10.0807 22.2947C10.0807 22.2828 10.1684 22.1392 10.2755 21.9757C10.502 21.6298 10.8019 21.2862 10.8507 21.3164C10.8695 21.328 10.8802 21.3157 10.8747 21.2891C10.8692 21.2626 10.8864 21.2454 10.913 21.2509C10.9395 21.2564 10.9515 21.2451 10.9396 21.2259C10.9277 21.2066 11.0838 21.0144 11.2866 20.7988C11.8836 20.1638 12.0756 19.8256 12.1121 19.3448C12.1343 19.0516 12.0528 18.5867 11.9225 18.2645C11.8298 18.0351 11.5965 17.6768 11.4532 17.5438C11.4015 17.4958 11.3681 17.442 11.379 17.4244C11.3899 17.4068 11.3853 17.3967 11.3687 17.4021C11.3137 17.4201 11.0643 17.2427 11.0888 17.2031C11.1022 17.1816 11.096 17.1746 11.075 17.1875C11.0541 17.2005 10.9326 17.164 10.805 17.1064C10.6774 17.0489 10.4345 16.967 10.2652 16.9245C9.595 16.7562 8.68514 16.871 8.25346 17.1784C8.15309 17.2498 8.14827 17.2501 8.14827 17.1851C8.14827 17.1475 8.02521 16.4824 7.87481 15.7071C7.7244 14.9318 7.60135 14.2804 7.60135 14.2597C7.60135 14.2338 11.3075 14.222 19.4283 14.222H31.2553L31.2085 14.4316ZM10.042 17.8546C10.6659 18.0095 10.9596 18.2978 11.1196 18.9121C11.1926 19.1923 11.1896 19.2382 11.0828 19.4676C10.968 19.7142 10.8419 19.877 10.4282 20.3122C9.52204 21.2655 9.10025 21.9087 8.91051 22.6264C8.81939 22.9711 8.80378 23.5778 8.85559 24.7594L8.88841 25.5069L8.5639 25.5734C8.02488 25.6839 7.08629 26.0144 6.49488 26.3019C4.66588 27.1913 3.46698 28.5549 3.20653 30.042C3.11158 30.5842 3.16289 31.2423 3.3355 31.6965C3.37549 31.8017 3.4082 31.8914 3.4082 31.8959C3.40824 31.9004 3.27836 31.8581 3.11964 31.8019C2.70916 31.6567 2.44586 31.4902 2.13047 31.1767C1.15752 30.2094 1.13047 28.5061 2.05868 26.6564C2.46668 25.8433 2.87608 25.2825 3.55018 24.6132C4.23636 23.9318 4.88906 23.4489 6.1611 22.6812C7.23319 22.0343 7.80444 21.3625 8.13019 20.3658C8.18262 20.2053 8.29153 19.7377 8.37218 19.3266C8.55985 18.3703 8.67544 18.1035 8.96866 17.9497C9.27713 17.788 9.64288 17.7555 10.042 17.8546ZM19.9298 21.1303C20.8572 21.2927 21.5992 21.7603 22.1013 22.4988C22.9835 23.7961 22.8279 25.5443 21.7326 26.6395C20.9932 27.3789 19.8768 27.7416 18.8839 27.5649L18.8665 27.5619C18.6791 27.5285 18.5928 27.5132 18.5877 27.4837C18.5833 27.4586 18.6382 27.4232 18.7399 27.3575L18.7509 27.3504C19.019 27.1771 19.1975 26.9605 19.3568 26.6155C19.6877 25.8985 19.6988 25.2155 19.3895 24.5969C19.2525 24.3229 18.9379 23.9185 18.7106 23.7243C18.4563 23.5071 18.012 23.2529 17.7031 23.148C17.3517 23.0287 16.9523 23.0364 16.6633 23.1682C16.5437 23.2228 16.4164 23.294 16.3805 23.3265C16.3446 23.359 16.3081 23.3784 16.2994 23.3697C16.2688 23.3392 16.6086 22.6705 16.7673 22.4488C17.4807 21.4521 18.7487 20.9235 19.9298 21.1303ZM15.9717 21.5766C15.9519 21.6285 15.9561 21.6327 15.9921 21.597C16.017 21.5722 16.0282 21.5428 16.017 21.5316C16.0058 21.5204 15.9854 21.5406 15.9717 21.5766ZM15.3065 23.4559C15.2786 23.5612 15.2461 23.8114 15.2341 24.012L15.2339 24.017C15.2228 24.2021 15.2167 24.305 15.1753 24.3908C15.1235 24.4983 15.0165 24.5791 14.7755 24.7611L14.7703 24.7651C14.2793 25.136 13.8054 25.3351 13.2248 25.4146C12.9879 25.447 12.8496 25.4428 12.4651 25.3911C11.9733 25.325 10.1277 25.296 9.9314 25.3512L9.83675 25.3778L9.81341 24.8225C9.80054 24.5171 9.77906 24.0416 9.76568 23.7658L9.74136 23.2645H12.5492H15.357L15.3065 23.4559ZM29.4977 23.3465C29.4803 23.4234 29.1315 25.213 29.1069 25.3518C29.0963 25.4116 28.9275 25.4161 26.2971 25.4247C24.758 25.4298 23.4987 25.4258 23.4987 25.4157C23.4987 25.4057 23.5233 25.2689 23.5534 25.1117C23.6417 24.6501 23.625 23.9079 23.5145 23.383L23.4896 23.2645H26.5029H29.5163L29.4977 23.3465ZM17.5214 24.1245C17.7807 24.2004 18.0154 24.3523 18.2361 24.5872C18.4743 24.8408 18.563 24.993 18.634 25.2704C18.734 25.6606 18.6136 26.1733 18.3603 26.4366C18.1877 26.6161 17.951 26.6994 17.1033 26.879C15.6617 27.1845 15.0564 27.462 14.4197 28.1097C14.0832 28.4521 14.0037 28.5622 13.5269 29.3456C12.9035 30.3702 12.2792 31.1691 11.468 31.9808C10.4834 32.9659 9.59322 33.5326 8.62228 33.7924C8.15192 33.9182 7.43927 33.9245 6.99973 33.8065C5.95896 33.5273 4.79871 32.5912 4.35814 31.6753C3.60214 30.1035 4.59893 28.3132 6.88053 27.1452C7.6086 26.7724 8.30878 26.5487 9.1692 26.4139C9.60087 26.3463 10.9901 26.3247 12.6695 26.3595C13.411 26.3748 13.6598 26.3409 14.2273 26.1473C14.8367 25.9393 15.2888 25.6239 16.1112 24.8327C16.8763 24.0967 17.0787 23.9951 17.5214 24.1245ZM28.8775 26.4822C28.867 26.5273 28.6705 27.5405 28.4408 28.7338C28.2111 29.927 27.8982 31.5513 27.7456 32.3435C27.593 33.1356 27.4355 33.8573 27.3958 33.9474C27.3064 34.1499 27.2057 34.2601 27.0173 34.3615L26.8714 34.44H19.4332C15.3422 34.44 11.9511 34.4277 11.8975 34.4127C11.6747 34.3502 11.4851 34.105 11.3723 33.7334C11.2876 33.4542 11.2967 33.4323 11.6065 33.1708C12.5392 32.3838 13.5892 31.0896 14.4669 29.6453C14.6193 29.3946 14.833 29.0817 14.9418 28.95C15.3637 28.4393 15.9246 28.1284 16.808 27.9157L17.0632 27.8542L17.3517 28.0192C18.3918 28.6141 19.7241 28.7197 20.8766 28.2986C21.6984 27.9984 22.4743 27.3873 22.9375 26.6753L23.1158 26.4011L26.0061 26.4007L28.8964 26.4002L28.8775 26.4822ZM21.105 30.0099C20.8765 30.0239 20.7892 30.045 20.7275 30.101C20.4573 30.3461 20.4995 30.7493 20.8108 30.897C20.9263 30.9518 21.1603 30.9579 23.1499 30.9579C25.532 30.9579 25.5335 30.9578 25.6581 30.7677C25.813 30.5311 25.7543 30.2262 25.5265 30.0854C25.4159 30.0171 25.3231 30.0135 23.4065 30.0028C22.3041 29.9967 21.2684 29.9999 21.105 30.0099ZM19.88 32.1589C19.5294 32.2287 19.3697 32.6655 19.6034 32.9157C19.6117 32.9246 19.6193 32.933 19.6266 32.9411C19.641 32.9571 19.654 32.9716 19.6682 32.9847C19.8041 33.1096 20.0547 33.1095 22.6903 33.1092C22.83 33.1092 22.9764 33.1092 23.1299 33.1092C25.3395 33.1092 26.4072 33.0968 26.4771 33.0703C26.7409 32.9703 26.8604 32.7092 26.7586 32.4549C26.7259 32.373 26.6476 32.2694 26.5847 32.2245L26.4703 32.1429L23.2435 32.1374C21.4687 32.1343 19.9551 32.144 19.88 32.1589ZM32.18 11.9003C32.5205 12.0801 32.6731 12.5064 32.5109 12.8244C32.4148 13.0128 32.2158 13.1867 32.0409 13.2353C31.8418 13.2906 7.09245 13.2892 6.83455 13.2338C6.61133 13.186 6.41528 13.0276 6.32026 12.8185C6.24832 12.6601 6.23235 12.4135 6.28836 12.3259C6.30045 12.307 6.3144 12.2798 6.33065 12.248L6.33067 12.248C6.34602 12.218 6.36342 12.184 6.38323 12.1493C6.45557 12.0224 6.58432 11.9135 6.73155 11.8545C6.78475 11.8332 11.6146 11.8192 19.4184 11.8178L32.0193 11.8155L32.18 11.9003Z" fill="white"/>
</svg>
