<svg width="30" height="31" viewBox="0 0 30 31" fill="none" xmlns="http://www.w3.org/2000/svg">
<path d="M24.8436 17.6823H22.1512C21.8623 17.6823 21.58 17.768 21.3401 17.9287L18.0478 20.1323C17.5228 20.4823 16.9103 20.6427 16.3123 20.6427C15.8019 20.6427 15.2915 20.526 14.8248 20.2635C14.1222 19.8921 13.6061 19.2099 13.3526 18.445C13.1496 17.8323 12.7448 17.2646 12.1615 16.9887C11.4917 16.6721 10.888 16.2537 10.3769 15.7427C9.12275 14.4885 8.43734 12.7239 8.43734 10.7552V5.06767V4.70308C8.43734 3.89768 7.78441 3.24475 6.979 3.24475C3.0415 3.24475 0.416504 5.2135 0.416504 9.80725V17.6823C0.416504 22.276 3.0415 24.2448 6.979 24.2448H12.4478V28.401H8.2915C7.69359 28.401 7.19775 28.8968 7.19775 29.4948C7.19775 30.0927 7.69359 30.5885 8.2915 30.5885H18.7915C19.3894 30.5885 19.8853 30.0927 19.8853 29.4948C19.8853 28.8968 19.3894 28.401 18.7915 28.401H14.6353V24.2448H20.104C23.5973 24.2448 26.0575 22.6951 26.5682 19.1377C26.6825 18.3404 26.0136 17.6823 25.2082 17.6823H24.8436Z" fill="white"/>
<path d="M24.8438 0.328125H15.3646C13.1917 0.328125 11.5583 1.43646 10.9167 3.24479C10.7271 3.79896 10.625 4.41146 10.625 5.06771V10.7552C10.625 12.1698 11.0917 13.3656 11.9229 14.1969C12.7542 15.0281 13.95 15.4948 15.3646 15.4948V17.5219C15.3646 18.2656 16.2104 18.7177 16.8375 18.3094L21.0521 15.4948H24.8438C25.5 15.4948 26.1125 15.3927 26.6667 15.2031C28.475 14.5615 29.5833 12.9281 29.5833 10.7552V5.06771C29.5833 2.22396 27.6875 0.328125 24.8438 0.328125ZM15.9042 9.07812C15.2917 9.07812 14.8104 8.58229 14.8104 7.98437C14.8104 7.38646 15.2917 6.89062 15.9042 6.89062C16.5167 6.89062 16.9979 7.38646 16.9979 7.98437C16.9979 8.58229 16.5167 9.07812 15.9042 9.07812ZM20.0167 9.07812C19.4042 9.07812 18.9229 8.58229 18.9229 7.98437C18.9229 7.38646 19.4187 6.89062 20.0167 6.89062C20.6146 6.89062 21.1104 7.38646 21.1104 7.98437C21.1104 8.58229 20.6146 9.07812 20.0167 9.07812ZM24.1146 9.07812C23.5021 9.07812 23.0208 8.58229 23.0208 7.98437C23.0208 7.38646 23.5167 6.89062 24.1146 6.89062C24.7125 6.89062 25.2083 7.38646 25.2083 7.98437C25.2083 8.58229 24.7125 9.07812 24.1146 9.07812Z" fill="white"/>
<path d="M29.5833 5.06771V10.7552C29.5833 12.9281 28.475 14.5615 26.6667 15.2031C26.1125 15.3927 25.5 15.4948 24.8438 15.4948H21.0521L16.8375 18.3094C16.2104 18.7177 15.3646 18.2656 15.3646 17.5219V15.4948C13.95 15.4948 12.7542 15.0281 11.9229 14.1969C11.0917 13.3656 10.625 12.1698 10.625 10.7552V5.06771C10.625 4.41146 10.7271 3.79896 10.9167 3.24479C11.5583 1.43646 13.1917 0.328125 15.3646 0.328125H24.8438C27.6875 0.328125 29.5833 2.22396 29.5833 5.06771Z" fill="white"/>
</svg>
