<svg width="26" height="30" viewBox="0 0 26 30" fill="none" xmlns="http://www.w3.org/2000/svg">
<path fill-rule="evenodd" clip-rule="evenodd" d="M12.5027 0.81256C9.44493 1.07353 6.83003 3.11056 5.90269 5.95409C5.62116 6.8174 5.56934 7.17411 5.56934 8.24824C5.56934 9.30229 5.61873 9.65693 5.88302 10.5001C6.51544 12.5181 8.20785 14.3443 10.194 15.1522C11.3192 15.6098 12.1646 15.7585 13.4294 15.7211C14.3818 15.6929 14.9788 15.5865 15.7549 15.3063C18.1229 14.4513 19.9474 12.4585 20.5723 10.0447C20.778 9.25006 20.8276 8.77585 20.7942 7.92392C20.7487 6.76563 20.5697 6.08136 20.0252 4.98425C19.6241 4.17604 19.2109 3.61757 18.5233 2.9547C16.9014 1.39097 14.7394 0.62168 12.5027 0.81256ZM9.3599 16.48C7.34218 16.7584 5.44498 17.6182 4.04259 18.8897C2.33526 20.4378 1.29028 22.3884 0.966491 24.6317C0.907395 25.0409 0.888943 25.4616 0.900924 26.1259L0.917556 27.0505L1.08307 27.3868C1.56008 28.356 2.83407 28.8836 5.21456 29.0979C6.3749 29.2024 8.78097 29.2463 13.3536 29.2465C19.4239 29.2467 21.1655 29.1893 22.6776 28.9394C24.7465 28.5974 25.7088 27.9287 25.8713 26.72C25.9427 26.1891 25.8607 24.829 25.7126 24.0875C24.9675 20.356 22.0658 17.4653 18.2083 16.6115L17.6 16.4769L13.5558 16.468C11.3315 16.4631 9.44332 16.4686 9.3599 16.48Z" fill="white" fill-opacity="0.4"/>
</svg>
