<svg width="34" height="31" viewBox="0 0 34 31" fill="none" xmlns="http://www.w3.org/2000/svg">
<path d="M27.0088 0.989746C30.8031 0.989746 33.8797 4.06557 33.8799 7.85986C33.8799 9.78043 33.0917 11.5174 31.8213 12.7642C31.1869 13.3866 30.7983 14.2686 31.0117 15.1313L33.3564 24.6138C34.0395 27.3757 31.9496 30.0452 29.1045 30.0454C27.0904 30.0454 25.3352 28.6725 24.8516 26.7173L22.126 15.6948C21.8988 14.7766 21.0748 14.1315 20.1289 14.1313H15.833C15.2615 14.1313 14.7538 13.7653 14.5732 13.2231L11.082 2.73682C10.7959 1.87734 11.4359 0.989754 12.3418 0.989746H27.0088ZM2.24902 16.4224C2.54213 16.4224 2.78005 16.6596 2.78027 16.9526V25.5396C2.78027 25.8328 2.54227 26.0708 2.24902 26.0708H1.08496C0.791712 26.0708 0.553711 25.8328 0.553711 25.5396V16.9526C0.553939 16.6596 0.791853 16.4224 1.08496 16.4224H2.24902ZM7.02832 23.6743C7.32153 23.6743 7.5595 23.9124 7.55957 24.2056V25.5396C7.55957 25.8328 7.32157 26.0708 7.02832 26.0708H5.86426C5.57101 26.0708 5.33301 25.8328 5.33301 25.5396V24.2056C5.33308 23.9124 5.57105 23.6743 5.86426 23.6743H7.02832ZM11.8076 23.6743C12.1008 23.6743 12.3388 23.9124 12.3389 24.2056V25.5396C12.3389 25.8328 12.1009 26.0708 11.8076 26.0708H10.6436C10.3503 26.0708 10.1123 25.8328 10.1123 25.5396V24.2056C10.1124 23.9124 10.3503 23.6743 10.6436 23.6743H11.8076ZM16.5869 16.4224C16.88 16.4224 17.1179 16.6596 17.1182 16.9526V25.5396C17.1182 25.8328 16.8802 26.0708 16.5869 26.0708H15.4229C15.1296 26.0708 14.8916 25.8328 14.8916 25.5396V16.9526C14.8918 16.6596 15.1297 16.4224 15.4229 16.4224H16.5869ZM7.02832 16.4224C7.32143 16.4224 7.55934 16.6596 7.55957 16.9526V21.9478C7.55957 22.241 7.32157 22.479 7.02832 22.479H5.86426C5.57101 22.479 5.33301 22.241 5.33301 21.9478V16.9526C5.33324 16.6596 5.57115 16.4224 5.86426 16.4224H7.02832ZM11.8076 16.4224C12.1007 16.4224 12.3386 16.6596 12.3389 16.9526V21.9478C12.3389 22.241 12.1009 22.479 11.8076 22.479H10.6436C10.3503 22.479 10.1123 22.241 10.1123 21.9478V16.9526C10.1125 16.6596 10.3504 16.4224 10.6436 16.4224H11.8076Z" fill="white" fill-opacity="0.4"/>
</svg>
