<svg width="21" height="21" viewBox="0 0 21 21" fill="none" xmlns="http://www.w3.org/2000/svg">
<path d="M0.771921 4.02464C-0.113752 3.13896 -0.113752 1.703 0.771921 0.817331C1.65759 -0.0683422 3.09355 -0.0683422 3.97923 0.817331L19.6042 16.4423C20.4899 17.328 20.4899 18.7639 19.6042 19.6496C18.7185 20.5353 17.2826 20.5353 16.3969 19.6496L0.771921 4.02464Z" fill="#BB4141"/>
<path d="M19.6044 4.02464C20.4901 3.13896 20.4901 1.703 19.6044 0.817331C18.7188 -0.0683422 17.2828 -0.0683422 16.3971 0.817331L0.77215 16.4423C-0.113524 17.328 -0.113523 18.7639 0.77215 19.6496C1.65782 20.5353 3.09378 20.5353 3.97946 19.6496L19.6044 4.02464Z" fill="#BB4141"/>
</svg>
