<svg width="40" height="30" viewBox="0 0 40 30" fill="none" xmlns="http://www.w3.org/2000/svg">
<path fill-rule="evenodd" clip-rule="evenodd" d="M15.6434 0.0743109C15.3849 0.138984 15.0398 0.31198 14.7344 0.530005C14.6059 0.621772 12.9539 2.50497 11.0633 4.7149L7.6259 8.73304L5.0313 8.73486C3.60427 8.73591 2.28765 8.76091 2.10548 8.79049C1.06129 8.96012 0.188626 9.84789 0.0434939 10.8882C-0.126921 12.1101 0.608343 13.2639 1.78474 13.6207C1.93081 13.6651 2.1248 13.7019 2.21589 13.7027C2.30698 13.7035 2.40806 13.7224 2.44046 13.7447C2.47286 13.767 2.9914 16.7402 3.59268 20.3519C4.19402 23.9636 4.72056 27.0552 4.76285 27.2221C5.02722 28.2656 5.81807 29.185 6.8558 29.6553C7.61287 29.9984 6.91548 29.9812 19.9916 29.9812C33.4063 29.9812 32.386 30.0134 33.3192 29.5611C33.7556 29.3496 33.9202 29.231 34.2619 28.8819C34.7164 28.4176 34.9748 28.0227 35.1517 27.5218C35.26 27.2152 37.4606 14.2543 37.4628 13.9104C37.4635 13.798 37.4953 13.754 37.588 13.7371C37.6563 13.7246 37.8591 13.6873 38.0388 13.6542C39.2172 13.4372 40.1018 12.2066 39.9678 10.971C39.9218 10.5467 39.8347 10.3021 39.6007 9.93894C39.3629 9.56999 39.1689 9.37608 38.7997 9.1383C38.2224 8.76654 38.2818 8.77294 35.1844 8.7502L32.3806 8.72962L28.9023 4.67462C26.1736 1.49343 25.3608 0.579172 25.1305 0.431946C24.0807 -0.239344 22.7216 -0.079592 21.9177 0.809667C21.2343 1.56561 21.0735 2.6629 21.5117 3.58069C21.6744 3.92133 21.8178 4.09444 24.9532 7.73254C25.4048 8.2566 25.7628 8.6969 25.7488 8.71102C25.7347 8.7251 23.1313 8.73028 19.9633 8.72256L14.2035 8.70849L16.092 6.51257C17.1307 5.30485 18.0887 4.175 18.2209 4.00179C18.5785 3.5334 18.714 3.1304 18.7166 2.52809C18.7211 1.47483 18.2519 0.73782 17.2665 0.250507C16.9 0.069234 16.8102 0.0480993 16.3556 0.0358489C16.0783 0.0283993 15.7578 0.0457265 15.6434 0.0743109ZM13.0197 16.3742C13.2894 16.503 13.4977 16.7144 13.6222 16.9858C13.717 17.1923 13.7235 17.4261 13.7235 20.6278C13.7235 24.4573 13.7389 24.3016 13.3253 24.6646C13.0558 24.9011 12.7882 24.9792 12.3638 24.9452C11.9243 24.9099 11.6406 24.7355 11.4242 24.3676L11.2694 24.1043V20.6278C11.2694 17.1743 11.2701 17.1499 11.3882 16.9306C11.7133 16.3269 12.4178 16.0866 13.0197 16.3742ZM17.9767 16.3558C18.3106 16.5072 18.4632 16.657 18.6183 16.9858L18.7484 17.2617L18.749 20.6158C18.7496 24.246 18.7584 24.1313 18.4467 24.5398C18.0347 25.0798 17.017 25.0948 16.5721 24.5674C16.2563 24.193 16.2652 24.3087 16.2666 20.6158C16.2677 17.4123 16.274 17.1932 16.3702 16.9858C16.6579 16.3662 17.3771 16.0841 17.9767 16.3558ZM22.9543 16.3435C23.2326 16.4629 23.5056 16.7248 23.6464 17.0074C23.7386 17.1926 23.7455 17.4465 23.7455 20.6278C23.7455 24.0279 23.7448 24.0505 23.6264 24.2698C23.3799 24.7264 22.9952 24.9596 22.4884 24.9596C21.889 24.9596 21.4136 24.5716 21.2863 23.9783C21.25 23.8086 21.2352 22.5442 21.2454 20.46C21.2601 17.4674 21.2693 17.1889 21.3606 16.9866C21.4981 16.6817 21.657 16.5238 21.979 16.372C22.3121 16.215 22.633 16.2056 22.9543 16.3435ZM27.9962 16.3723C28.1481 16.4441 28.3396 16.5746 28.4219 16.6623C28.7422 17.0037 28.7415 16.9946 28.7415 20.6561V24.0089L28.5873 24.304C28.3598 24.7394 28.0821 24.9144 27.5718 24.944C27.0568 24.9741 26.7651 24.8387 26.4797 24.4372L26.2849 24.1631L26.2695 20.7519C26.2589 18.399 26.2729 17.2708 26.3148 17.1154C26.3893 16.8388 26.8105 16.4004 27.0854 16.3134C27.4019 16.213 27.7 16.2323 27.9962 16.3723Z" fill="white" fill-opacity="0.6"/>
</svg>
