<svg width="36" height="37" viewBox="0 0 36 37" fill="none" xmlns="http://www.w3.org/2000/svg">
<path d="M14.3655 3.01309C16.3877 1.44455 19.2157 1.44564 21.2368 3.01558L32.4008 11.6877C33.7671 12.7491 34.5665 14.3823 34.5665 16.1125V29.6889C34.5665 32.7833 32.058 35.2918 28.9636 35.2918H6.61654C3.52219 35.2918 1.01371 32.7833 1.01367 29.6889V16.115C1.01367 14.3835 1.81425 12.749 3.1824 11.6877L14.3655 3.01309ZM12.8347 32.7493C12.1354 32.7493 11.5684 33.3161 11.5683 34.0154C11.5683 34.7148 12.1353 35.282 12.8347 35.2821H22.8203C23.5197 35.2821 24.0867 34.7151 24.0867 34.0157C24.0867 33.3162 23.5198 32.7493 22.8203 32.7493H12.8347ZM19.6744 5.02687C18.572 4.17055 17.0296 4.17007 15.9266 5.02563L4.74353 13.7C3.99726 14.2789 3.56043 15.1705 3.56043 16.115V29.6889C3.56047 31.3767 4.92873 32.745 6.61654 32.745H28.9636C30.6514 32.745 32.0197 31.3767 32.0197 29.6889V16.1125C32.0197 15.1688 31.5836 14.278 30.8384 13.699L19.6744 5.02687Z" fill="#D9D9D9" stroke="#908F91" stroke-width="2"/>
</svg>
