<svg width="30" height="30" viewBox="0 0 30 30" fill="none" xmlns="http://www.w3.org/2000/svg">
<path fill-rule="evenodd" clip-rule="evenodd" d="M20.9716 16.9717C18.7625 16.9717 16.9716 18.7625 16.9716 20.9717L16.9716 26.0001C16.9716 28.2092 18.7625 30.0001 20.9716 30.0001L26 30.0001C28.2091 30.0001 30 28.2092 30 26.0001L30 20.9717C30 18.7625 28.2091 16.9717 26 16.9717L20.9716 16.9717ZM16.9716 4C16.9716 1.79086 18.7625 -4.91207e-07 20.9716 -3.94643e-07L26 -1.74846e-07C28.2091 -7.82811e-08 30 1.79086 30 4L30 9.02838C30 11.2375 28.2091 13.0284 26 13.0284L20.9716 13.0284C18.7625 13.0284 16.9716 11.2375 16.9716 9.02838L16.9716 4ZM3.99995 -1.1365e-06C1.79081 -1.23306e-06 -4.7762e-05 1.79086 -4.78586e-05 4L-4.80784e-05 9.02838C-4.81749e-05 11.2375 1.79081 13.0284 3.99995 13.0284L9.02833 13.0284C11.2375 13.0284 13.0283 11.2375 13.0283 9.02838L13.0283 4C13.0283 1.79086 11.2375 -8.20136e-07 9.02833 -9.16701e-07L3.99995 -1.1365e-06ZM3.99995 16.9717C1.79081 16.9717 -4.85039e-05 18.7625 -4.86004e-05 20.9717L-4.88202e-05 26.0001C-4.89168e-05 28.2092 1.79081 30.0001 3.99995 30.0001L9.02833 30.0001C11.2375 30.0001 13.0283 28.2092 13.0283 26.0001L13.0283 20.9717C13.0283 18.7625 11.2375 16.9717 9.02833 16.9717L3.99995 16.9717Z" fill="#D9D9D9" fill-opacity="0.6"/>
</svg>
