<svg width="33" height="28" viewBox="0 0 33 28" fill="none" xmlns="http://www.w3.org/2000/svg">
<path fill-rule="evenodd" clip-rule="evenodd" d="M5.30127 0.312134C2.53985 0.312134 0.30127 2.55071 0.30127 5.31213V22.2205C0.30127 24.9819 2.53984 27.2205 5.30127 27.2205H27.5913C30.3527 27.2205 32.5913 24.9819 32.5913 22.2205V5.31213C32.5913 2.55071 30.3527 0.312134 27.5913 0.312134H5.30127ZM4.32297 5.81162C4.73567 5.09679 5.64972 4.85187 6.36455 5.26458L16.4463 11.0852L26.528 5.26458C27.2428 4.85187 28.1568 5.09679 28.5695 5.81162C28.9822 6.52645 28.7373 7.44049 28.0225 7.8532L17.1997 14.1018C16.962 14.239 16.7022 14.3035 16.4463 14.3022C16.1903 14.3035 15.9305 14.239 15.6928 14.1018L4.87001 7.8532C4.15518 7.44049 3.91026 6.52645 4.32297 5.81162Z" fill="white" fill-opacity="0.4"/>
</svg>
