<svg width="601" height="601" viewBox="0 0 601 601" fill="none" xmlns="http://www.w3.org/2000/svg">
<path fill-rule="evenodd" clip-rule="evenodd" d="M293.054 161.074C279.336 162.445 266.32 166.324 253.006 173.01C227.512 185.811 207.938 207.762 197.931 234.773C193.28 247.327 191.24 259.036 191.183 273.488C191.141 284.202 191.987 291.915 194.16 300.616C202.539 334.174 225.063 361.759 256.084 376.454C263.722 380.072 274.68 383.602 283.836 385.394C290.181 386.635 293.056 386.836 304.423 386.835C318.796 386.833 322.92 386.298 335.285 382.833C373.94 372.001 404.158 340.915 414.099 301.757C416.878 290.81 417.684 282.928 417.306 270.416C416.776 252.895 413.785 240.422 406.445 225.126C395.04 201.356 377.073 183.334 353.278 171.794C334.743 162.805 313.523 159.028 293.054 161.074ZM458.455 173.35C448.475 175.025 441.502 183.102 439.383 195.443C436.625 211.511 436.774 259.163 439.651 280.849C440.395 286.458 442.143 289.252 446.335 291.534C451.293 294.232 457.873 293.407 461.259 289.663C464.273 286.329 464.201 287.832 464.201 228.34V172.705L462.818 172.778C462.058 172.817 460.095 173.075 458.455 173.35ZM313.309 184.408C325.782 185.837 333.643 188.15 344.675 193.639C369.271 205.877 386.858 229.039 392.707 256.896C394.275 264.368 394.277 283.386 392.71 290.695C386.146 321.315 367.11 344.842 339.349 356.643C327.086 361.856 314.217 364.191 300.736 363.65C283.569 362.96 268.882 358.213 254.373 348.663C246.658 343.585 234.976 332.011 229.914 324.429C209.084 293.232 209.183 253.777 230.168 222.962C235.179 215.605 245.981 204.77 253.11 199.952C271.377 187.604 292.839 182.063 313.309 184.408ZM136.503 186.723C135.235 186.828 134.196 187.105 134.194 187.337C134.188 187.835 132.119 213.467 131.088 225.81C130.087 237.789 130.521 244.587 132.573 249.076C134.624 253.56 138.791 257.752 143.296 259.864C146.424 261.331 147.514 261.505 153.556 261.505C159.825 261.505 160.576 261.373 163.903 259.689C168.535 257.344 173.038 252.432 174.773 247.83C176.827 242.384 176.804 237.028 174.616 211.114L172.592 187.147L168.993 186.826C166.809 186.632 165.3 186.753 165.156 187.133C165.025 187.479 164.713 197.717 164.461 209.885L164.003 232.008L160.777 232.193L157.55 232.379V209.661C157.55 195.339 157.327 186.866 156.947 186.737C156.615 186.625 154.679 186.626 152.645 186.741L148.947 186.949V209.632V232.315H145.874H142.802L142.718 226.631C142.673 223.504 142.465 213.203 142.257 203.739L141.88 186.532H140.343C139.498 186.532 137.77 186.618 136.503 186.723ZM289.982 202.21C276.097 205.052 264.213 211.23 254.269 220.777C242.208 232.356 234.993 245.674 232.245 261.434C231.183 267.529 231.017 278.477 231.897 284.552C234.356 301.545 244.459 319.558 257.308 329.859C263.063 334.471 264.08 334.863 260.754 331.184C243.855 312.492 237.958 284.003 246.011 259.965C254.324 235.153 273.919 217.42 299.814 211.274C307.738 209.394 323.231 209.394 331.155 211.274C337.463 212.771 343.394 214.903 348.697 217.58C350.71 218.596 352.355 219.216 352.354 218.958C352.349 218.026 343.036 211.664 337.465 208.787C331.228 205.566 323.97 203.133 316.76 201.847C310.031 200.647 296.738 200.826 289.982 202.21ZM149.408 269.85C146.961 271.276 146.554 273.492 145.904 288.931C144.42 324.198 143.368 352.422 143.243 360.324L143.109 368.807L145.915 371.466C149.496 374.86 152.546 375.526 156.5 373.777C157.996 373.116 159.992 371.561 160.936 370.324L162.652 368.075L162.232 354.12C162.001 346.445 161.552 334.496 161.234 327.567C160.917 320.638 160.368 306.535 160.015 296.226C159.662 285.917 159.227 276.332 159.047 274.925C158.588 271.328 156.322 269.181 153.011 269.205C151.621 269.216 149.999 269.506 149.408 269.85ZM451.526 297.868C450.807 298.015 449.583 298.813 448.804 299.642C447.191 301.358 446.893 304.57 444.555 345.267C443.201 368.835 443.18 368.546 446.484 371.63C450.873 375.729 455.966 375.665 460.358 371.455L463.166 368.766L462.77 359.075C461.903 337.821 459.829 304.391 459.242 302.215C458.372 298.991 455.086 297.139 451.526 297.868ZM206.721 418.365C201.363 421.052 202.422 427.761 208.493 429.599C214.833 431.518 215.931 432.109 215.931 433.603C215.931 435.371 214.321 436.339 211.381 436.339C209.679 436.339 208.912 435.939 207.845 434.495C206.807 433.093 205.995 432.652 204.446 432.652C202.148 432.652 201.999 433.134 203.39 436.066C204.832 439.103 208.885 440.919 213.006 440.372C217.014 439.84 219.399 438.136 220.288 435.168C220.868 433.231 220.813 432.457 219.963 430.668C218.892 428.41 216.725 427.143 211.81 425.899C210.389 425.539 208.786 424.805 208.248 424.267C207.352 423.371 207.358 423.189 208.315 422.132C209.799 420.492 212.604 420.666 214.45 422.512C216.524 424.586 219.618 424.655 219.618 422.628C219.618 420.953 217.662 418.679 215.525 417.866C213.14 416.959 209.064 417.19 206.721 418.365ZM131.74 428.965V440.026H133.891H136.042V435.417V430.808H137.831C139.779 430.808 141.282 432.269 144.385 437.18C146.062 439.834 146.356 440.024 148.793 440.025C150.23 440.026 151.405 439.869 151.405 439.676C151.405 439.094 147.643 433.688 145.996 431.905L144.455 430.236L145.933 429.671C149.37 428.356 150.794 424.874 149.329 421.367C148.087 418.394 146.547 417.903 138.46 417.903H131.74V428.965ZM168.612 428.965V440.026H176.908H185.204V438.205V436.383L179.213 436.208L173.221 436.032L173.033 433.113L172.846 430.194H178.411H183.975V428.374V426.555L178.598 426.377L173.221 426.199L173.032 423.918L172.842 421.636L178.87 421.459L184.897 421.283L185.091 419.593L185.286 417.903H176.949H168.612V428.965ZM236.938 419.593C237.119 421.169 237.349 421.295 240.358 421.469L243.585 421.655V430.878V440.101L245.889 439.91L248.194 439.719L248.332 431.116C248.408 426.384 248.477 422.305 248.485 422.051C248.494 421.797 249.884 421.59 251.573 421.59C254.578 421.59 254.646 421.549 254.646 419.747V417.903H245.695H236.743L236.938 419.593ZM274.919 420.684C274.247 422.252 273.697 423.648 273.697 423.785C273.697 423.922 272.314 427.524 270.624 431.79C268.934 436.056 267.551 439.654 267.551 439.787C267.551 439.918 268.613 440.026 269.911 440.026C272.119 440.026 272.323 439.868 273.082 437.568L273.893 435.11H278.454H283.014L283.979 437.568C284.877 439.853 285.114 440.026 287.351 440.026C290.19 440.026 290.428 441.305 285.126 428.043L281.196 418.21L278.669 418.021C276.192 417.836 276.117 417.888 274.919 420.684ZM306.388 426.353C306.704 435.93 307.415 438.096 310.693 439.479C315.176 441.37 322.264 439.828 323.452 436.703C323.749 435.922 324.083 431.372 324.194 426.592L324.395 417.901L322.091 417.903L319.786 417.903V426.104C319.786 435.375 319.371 436.339 315.378 436.339C311.631 436.339 311.183 435.234 311.183 425.997V417.903H308.646H306.109L306.388 426.353ZM343.278 428.811L343.446 439.719H345.597H347.748L347.928 435.264C348.09 431.261 348.235 430.808 349.351 430.808C351.487 430.808 352.709 431.855 355.412 436.006C357.895 439.817 358.156 440.026 360.417 440.026C361.73 440.026 362.804 439.744 362.804 439.399C362.804 438.56 359.862 433.98 358.009 431.934L356.525 430.295L358.417 429.316C362.137 427.392 362.799 422.72 359.778 419.699C357.991 417.912 357.945 417.903 350.546 417.903H343.11L343.278 428.811ZM382.63 427.891C380.522 433.382 378.625 438.36 378.416 438.951C378.098 439.849 378.408 440.026 380.301 440.026C382.378 440.026 382.649 439.819 383.542 437.544L384.517 435.062L389.124 435.24L393.732 435.417L394.45 437.568C395.106 439.529 395.403 439.736 397.81 439.912C399.798 440.057 400.373 439.905 400.133 439.297C399.957 438.853 397.957 433.858 395.687 428.197L391.56 417.903L389.011 417.904L386.463 417.906L382.63 427.891ZM417.022 428.811L417.189 439.719L419.187 439.911L421.184 440.104V433.305C421.184 429.566 421.391 426.519 421.645 426.534C421.899 426.548 423.906 429.521 426.107 433.14C429.949 439.458 430.199 439.726 432.406 439.91L434.704 440.101V429.002V417.903H432.573H430.442L430.269 424.817L430.095 431.73L425.87 424.817C421.652 417.913 421.642 417.903 419.249 417.903H416.854L417.022 428.811ZM452.525 419.747C452.525 421.548 452.595 421.59 455.581 421.59H458.638L458.807 430.655L458.978 439.719H461.128H463.279L463.449 430.686L463.619 421.654L466.829 421.468C469.821 421.296 470.053 421.168 470.233 419.593L470.428 417.903H461.476H452.525V419.747ZM144.638 422.504C145.748 423.841 144.896 426.42 143.204 426.845C142.421 427.041 140.559 427.114 139.065 427.008L136.349 426.814L136.16 424.202L135.971 421.59H139.926C142.676 421.59 144.111 421.869 144.638 422.504ZM356.62 422.973C357.608 425.52 356.094 426.789 351.824 426.997L348.055 427.179V424.385V421.59H352.069C355.663 421.59 356.14 421.735 356.62 422.973ZM280.057 426.98C281.59 430.947 281.439 431.423 278.649 431.423C277.317 431.423 276.087 431.195 275.914 430.917C275.463 430.186 278.109 423.286 278.617 423.868C278.851 424.136 279.499 425.537 280.057 426.98ZM390.672 427.352C391.218 428.999 391.505 430.606 391.31 430.921C390.855 431.656 386.46 431.248 386.472 430.472C386.496 428.965 388.803 423.384 389.214 423.84C389.47 424.123 390.126 425.704 390.672 427.352Z" fill="white"/>
</svg>
